# AST/ASF file generated using VICON BodyLanguage
# -----------------------------------------------
:version 1.10
:name VICON
:units
  mass 1.0
  length 0.45
  angle deg
:documentation
   .ast/.asf automatically generated from VICON data using
   VICON BodyBuilder and BodyLanguage model FoxedUp or BRILLIANT.MOD
:root
   order TX TY TZ RX RY RZ
   axis XYZ
   position 0 0 0  
   orientation 0 0 0 
:bonedata
  begin
     id 1 
     name lhipjoint
     direction 0.729592 -0.560644 0.39163 
     length 2.81907 
     axis 0 0 0  XYZ
  end
  begin
     id 2 
     name lfemur
     direction 0.34202 -0.939693 0  
     length 5.92797  
     axis 0 0 20  XYZ
    dof rx ry rz
    limits (-160.0 20.0)
           (-70.0 70.0)
           (-60.0 70.0)
  end
  begin
     id 3 
     name ltibia
     direction 0.34202 -0.939693 0   
     length 7.88118   
     axis 0 0 20   XYZ
    dof rx
    limits (-10.0 170.0)
  end
  begin
     id 4 
     name lfoot
     direction 0.0476411 -0.130893 0.990251   
     length 1.97348   
     axis -90 7.62852e-016 20   XYZ
    dof rx rz
    limits (-45.0 90.0)
           (-70.0 20.0)
  end
  begin
     id 5 
     name ltoes
     direction 1.53635e-011 -4.21786e-011 1   
     length 0.999366   
     axis -90 7.62852e-016 20   XYZ
    dof rx
    limits (-90.0 20.0)
  end
  begin
     id 6 
     name rhipjoint
     direction -0.702143 -0.583724 0.407752   
     length 2.70761  
     axis 0 0 0  XYZ 
  end
  begin
     id 7 
     name rfemur
     direction -0.34202 -0.939693 0   
     length 5.98021   
     axis 0 0 -20   XYZ
    dof rx ry rz
    limits (-160.0 20.0)
           (-70.0 70.0)
           (-70.0 60.0)
  end
  begin
     id 8 
     name rtibia
     direction -0.34202 -0.939693 0   
     length 7.66627   
     axis 0 0 -20   XYZ
    dof rx
    limits (-10.0 170.0)
 end
 begin
     id 9 
     name rfoot
     direction -0.0516088 -0.141794 0.98855   
     length 2.01387  
     axis -90 -7.62852e-016 -20   XYZ
    dof rx rz
    limits (-45.0 90.0)
           (-20.0 70.0)
  end
  begin
     id 10 
     name rtoes
     direction -1.53568e-011 -4.21939e-011 1   
     length 1.01862   
     axis -90 -7.62852e-016 -20   XYZ
    dof rx
    limits (-90.0 20.0)
  end
  begin
     id 11 
     name lowerback
     direction -0.0436953 0.98817 -0.147007   
     length 1.83615   
     axis 0 0 0   XYZ
    dof rx ry rz
    limits (-20.0 45.0)
           (-30.0 30.0)
           (-30.0 30.0)
  end
  begin
     id 12 
     name upperback
     direction 0.0239184 0.998197 0.0550483   
     length 1.80285   
     axis 0 0 0   XYZ
    dof rx ry rz
    limits (-20.0 45.0)
           (-30.0 30.0)
           (-30.0 30.0)
  end
  begin
     id 13 
     name thorax
     direction 0.0460768 0.990713 0.127927   
     length 1.87059   
     axis 0 0 0   XYZ
    dof rx ry rz
    limits (-20.0 45.0)
           (-30.0 30.0)
           (-30.0 30.0)
  end
  begin
     id 14 
     name lowerneck
     direction -0.0234223 0.997727 0.0631897   
     length 1.79511   
     axis 0 0 0   XYZ
    dof rx ry rz
    limits (-20.0 45.0)
           (-30.0 30.0)
           (-30.0 30.0)
  end
  begin
     id 15 
     name upperneck
     direction 0.0345303 0.984409 -0.172474   
     length 1.80359   
     axis 0 0 0   XYZ
    dof rx ry rz
    limits (-20.0 45.0)
           (-30.0 30.0)
           (-30.0 30.0)
  end
  begin
     id 16
     name head
     direction 0.00973222 0.9978 -0.0655778  
     length 1.81938  
     axis 0 0 0   XYZ
    dof rx ry rz
    limits (-20.0 45.0)
           (-30.0 30.0)
           (-30.0 30.0)
  end
  begin
     id 17 
     name lclavicle
     direction 0.971201 0.212597 -0.10757  
     length 3.74698  
     axis 0 0 0   XYZ
    dof ry rz
    limits (-20.0 10.0)
           (0.0 20.0)
  end
  begin
     id 18 
     name lhumerus
     direction 1 -4.4896e-011 1.42684e-027   
     length 4.83799   
     axis 180 -30 -90   XYZ
    dof rx ry rz
    limits (-60.0 90.0)
           (-90.0 90.0)
           (-90.0 90.0)
  end
  begin
     id 19
     name lradius
     direction 1 -4.48978e-011 1.53407e-026   
     length 2.68259   
     axis 180 -30 -90   XYZ
    dof rx
    limits (-10.0 170.0)
  end
  begin
     id 20
     name lwrist
     direction 1 -4.48982e-011 3.34345e-026   
     length 1.34129   
     axis -2.22354e-014 90 90   XYZ
    dof ry
    limits (-180.0 0.0)
 end
  begin
     id 21 
     name lhand
     direction 1 -4.48992e-011 6.6869e-026   
     length 0.724765   
     axis -4.26681e-014 90 90   XYZ
    dof rx rz
    limits (-90.0 90.0)
           (-45.0 45.0)
  end
  begin
     id 22 
     name lfingers
     direction 1 -4.48965e-011 1.33738e-025   
     length 0.584325   
     axis -8.53362e-014 90 90   XYZ
    dof rx
    limits (0.0 90.0)
  end
  begin
     id 23
     name lthumb
     direction 0.707107 -6.34915e-011 0.707107   
     length 0.838977   
     axis -90 45 2.85299e-015   XYZ
    dof rx rz
    limits (-45.0 45.0)
           (-45.0 45.0)
  end
  begin
     id 24 
     name rclavicle
     direction -0.987829 0.146084 -0.0534135   
     length 3.83678  
     axis 0 0 0   XYZ 
    dof ry rz
    limits (-10.0 20.0)
           (-20.0 0.0)
  end
  begin
     id 25 
     name rhumerus
     direction -1 -4.48963e-011 -3.4086e-018  
     length 4.61639   
     axis 180 30 90   XYZ
    dof rx ry rz
    limits (-90.0 60.0)
           (-90.0 90.0)
           (-90.0 90.0)
  end
  begin
     id 26 
     name rradius
     direction -1 -4.48983e-011 1.36226e-026   
     length 2.86915   
     axis 180 30 90   XYZ
    dof rx
    limits (-10.0 170.0)
  end
  begin
     id 27 
     name rwrist
     direction -1 -4.48927e-011 3.34345e-026   
     length 1.43458   
     axis -2.22354e-014 -90 -90   XYZ
    dof ry
    limits (-180.0 0.0)
  end
  begin
     id 28
     name rhand
     direction -1 -4.49071e-011 6.6869e-026   
     length 0.726007   
     axis -4.26681e-014 -90 -90   XYZ
    dof rx rz
    limits (-90.0 90.0)
           (-45.0 45.0)
  end
  begin
     id 29
     name rfingers
     direction -1 -4.48886e-011 1.33738e-025   
     length 0.585326   
     axis -8.53362e-014 -90 -90   XYZ
    dof rx
    limits (0.0 90.0)
  end
  begin
     id 30
     name rthumb
     direction -0.707107 -6.34932e-011 0.707107   
     length 0.840414   
     axis -90 -45 -2.85299e-015   XYZ
    dof rx rz
    limits (-45.0 45.0)
           (-45.0 45.0)
  end
:hierarchy
  begin
    root lhipjoint rhipjoint lowerback
    lhipjoint lfemur
    lfemur ltibia
    ltibia lfoot
    lfoot ltoes
    rhipjoint rfemur
    rfemur rtibia
    rtibia rfoot
    rfoot rtoes
    lowerback upperback
    upperback thorax
    thorax lowerneck lclavicle rclavicle
    lowerneck upperneck
    upperneck head
    lclavicle lhumerus
    lhumerus lradius
    lradius lwrist
    lwrist lhand lthumb
    lhand lfingers
    rclavicle rhumerus
    rhumerus rradius
    rradius rwrist
    rwrist rhand rthumb
    rhand rfingers
  end

#!OML:ASF F:\VICON\USERDATA\INSTALL\rory3\rory3.ASF
:FULLY-SPECIFIED
:DEGREES
48
root -1.1261 16.3407 -23.2439 1.46001 -1.36984 5.2428
lowerback 13.2666 0.517159 -7.85174
upperback -4.19929 -0.619416 0.962872
thorax -12.066 0.350427 5.66156
lowerneck -8.55358 -4.48284 -4.17495
upperneck 17.657 -5.86418 1.91571
head 6.98473 -2.93953 0.800098
rclavicle -6.1499e-015 4.77083e-015
rhumerus -41.1022 -1.72359 -82.7273
rradius 24.8549
rwrist 9.58386
rhand -6.2812 17.3819
rfingers 7.12502
rthumb 19.562 -11.654
lclavicle -6.1499e-015 4.77083e-015
lhumerus -34.3217 0.223811 87.9598
lradius 21.9235
lwrist -0.604554
lhand -6.38266 20.5539
lfingers 7.12502
lthumb 19.4645 49.5996
rfemur -29.263 -1.58834 14.7509
rtibia 71.0377
rfoot -4.80234 -2.89999
rtoes 17.0075
lfemur -8.12295 -13.9639 -30.0805
ltibia 23.4154
lfoot -12.5498 7.07264
ltoes 34.7214
49
root -1.11747 16.3291 -23.152 1.55818 -1.22313 5.24799
lowerback 13.3524 0.384434 -7.85157
upperback -4.34259 -0.805861 1.01105
thorax -12.2522 0.2782 5.7629
lowerneck -8.34398 -4.39997 -4.12005
upperneck 17.5077 -5.75147 1.84232
head 6.89203 -2.89017 0.784104
rclavicle 6.79595e-015 -1.66979e-014
rhumerus -41.2304 -1.54161 -82.829
rradius 25.0802
rwrist 9.35552
rhand -6.16967 17.1625
rfingers 7.12502
rthumb 19.6692 -11.8624
lclavicle 6.79595e-015 -1.66979e-014
lhumerus -34.4677 0.195527 87.9774
lradius 22.4789
lwrist -0.677833
lhand -6.45471 20.4015
lfingers 7.12502
lthumb 19.3952 49.4542
rfemur -30.1553 -1.70642 14.9444
rtibia 70.3216
rfoot -5.7881 -2.99012
rtoes 17.2346
lfemur -8.02505 -14.2092 -30.2026
ltibia 23.769
lfoot -13.0762 7.0883
ltoes 35.1998
50
root -1.10596 16.3242 -23.0541 1.5485 -0.847118 5.30717
lowerback 13.4213 0.251789 -7.69066
upperback -4.27424 -0.969083 0.91394
thorax -12.1887 0.178675 5.60077
lowerneck -8.66771 -4.44329 -3.76688
upperneck 17.4597 -5.8164 1.64731
head 6.91835 -2.91191 0.651404
rclavicle 1.51573e-015 7.95139e-016
rhumerus -41.3001 -1.42214 -83.0961
rradius 25.5722
rwrist 8.92114
rhand -6.45144 17.0824
rfingers 7.12502
rthumb 19.3983 -11.97
lclavicle 1.51573e-015 7.95139e-016
lhumerus -34.035 -0.36318 88.0941
lradius 22.6176
lwrist -0.526379
lhand -6.62833 20.0935
lfingers 7.12502
lthumb 19.2283 49.163
rfemur -30.7272 -2.01395 15.0025
rtibia 69.3447
rfoot -6.79677 -2.95677
rtoes 18.6363
lfemur -7.56258 -14.6701 -30.4398
ltibia 23.7796
lfoot -13.4486 7.23845
ltoes 35.1525
51
root -1.10541 16.3071 -22.9712 1.80141 -1.9093 5.37162
lowerback 13.2941 0.639881 -7.99982
upperback -4.36889 -0.500923 0.875893
thorax -12.2998 0.429611 5.62397
lowerneck -8.94487 -4.43628 -3.54981
upperneck 17.6387 -5.82825 1.60911
head 7.01707 -2.9041 0.594457
rclavicle -1.75179e-015 -6.36111e-015
rhumerus -41.4839 -1.42388 -83.2267
rradius 25.9739
rwrist 8.59765
rhand -7.29991 17.7579
rfingers 7.12502
rthumb 18.5824 -11.3745
lclavicle -1.75179e-015 -6.36111e-015
lhumerus -33.6024 -0.875227 88.2305
lradius 22.7463
lwrist -0.18513
lhand -6.60129 20.2633
lfingers 7.12502
lthumb 19.2542 49.3301
rfemur -32.1267 -0.993301 15.1083
rtibia 68.3433
rfoot -7.41154 -3.21077
rtoes 18.2899
lfemur -7.44164 -14.3278 -30.6258
ltibia 23.7357
lfoot -14.0309 7.85651
ltoes 35.2564
52
root -1.1169 16.31 -22.8664 1.57099 -0.90666 5.30351
lowerback 13.685 0.27754 -8.07175
upperback -4.36089 -1.02369 0.989964
thorax -12.4392 0.201852 5.9252
lowerneck -8.89354 -4.34045 -3.64804
upperneck 17.7353 -5.7132 1.75983
head 7.04355 -2.84294 0.669535
rclavicle 1.35919e-014 2.14687e-014
rhumerus -41.5475 -1.36881 -83.2321
rradius 26.0584
rwrist 8.65704
rhand -8.58153 19.1487
rfingers 7.12502
rthumb 17.3492 -10.097
lclavicle 1.35919e-014 2.14687e-014
lhumerus -33.4585 -1.12989 88.357
lradius 23.1448
lwrist 0.414081
lhand -6.43533 20.5806
lfingers 7.12502
lthumb 19.4138 49.6314
rfemur -31.9314 -1.6008 15.448
rtibia 66.893
rfoot -8.44741 -3.78963
rtoes 20.2687
lfemur -6.64726 -14.8126 -30.6288
ltibia 23.6209
lfoot -14.2086 7.43589
ltoes 35.075
53
root -1.11305 16.2959 -22.779 1.66472 -1.38523 5.30091
lowerback 13.4857 0.279477 -8.23802
upperback -4.33524 -1.01782 1.11832
thorax -12.2888 0.215671 6.15698
lowerneck -8.84474 -4.17875 -3.91025
upperneck 17.5941 -5.48281 1.95042
head 6.99588 -2.73397 0.796793
rclavicle 1.2921e-015 -4.77083e-015
rhumerus -41.4122 -0.825604 -83.3879
rradius 26.1993
rwrist 8.52031
rhand -9.16291 19.6612
rfingers 7.12502
rthumb 16.7896 -9.63287
lclavicle 1.2921e-015 -4.77083e-015
lhumerus -33.149 -1.15529 88.5036
lradius 23.4959
lwrist 1.01946
lhand -6.27663 20.7463
lfingers 7.12502
lthumb 19.5664 49.7817
rfemur -32.7878 -1.06129 15.5681
rtibia 65.5152
rfoot -9.02426 -4.08967
rtoes 20.9538
lfemur -6.31539 -14.7076 -30.7692
ltibia 23.5412
lfoot -14.6428 7.76782
ltoes 35.025
54
root -1.10543 16.2802 -22.6842 1.74518 -2.21613 5.33081
lowerback 13.2208 0.420785 -8.37637
upperback -4.33772 -0.822212 1.17441
thorax -12.1663 0.315138 6.24667
lowerneck -8.93646 -4.05394 -3.98251
upperneck 17.6887 -5.29929 1.95426
head 7.03911 -2.64959 0.823792
rclavicle -4.70871e-015 -5.56597e-015
rhumerus -41.5112 -0.312417 -83.554
rradius 26.4688
rwrist 8.35293
rhand -8.97039 19.5673
rfingers 7.12502
rthumb 16.9749 -9.71093
lclavicle -4.70871e-015 -5.56597e-015
lhumerus -32.9079 -1.4852 88.696
lradius 23.898
lwrist 1.46722
lhand -6.13607 21.1216
lfingers 7.12502
lthumb 19.7015 50.1432
rfemur -33.6193 -0.181679 15.5938
rtibia 63.9622
rfoot -9.25311 -4.81729
rtoes 19.0259
lfemur -5.89528 -14.5161 -31.0064
ltibia 23.4022
lfoot -15.2697 8.34251
ltoes 35.1564
55
root -1.108 16.2691 -22.587 1.78018 -2.7139 5.36756
lowerback 13.2209 0.537256 -8.54165
upperback -4.38593 -0.69751 1.17675
thorax -12.2459 0.392762 6.31602
lowerneck -8.82057 -4.05242 -3.87259
upperneck 17.6633 -5.29663 1.83076
head 7.00381 -2.6529 0.769029
rclavicle -6.21202e-015 5.56597e-015
rhumerus -41.6029 -0.297828 -83.623
rradius 26.5795
rwrist 8.46207
rhand -8.93995 19.7184
rfingers 7.12502
rthumb 17.0042 -9.55737
lclavicle -6.21202e-015 5.56597e-015
lhumerus -32.654 -2.05111 88.8496
lradius 24.099
lwrist 1.89198
lhand -6.06808 20.7126
lfingers 7.12502
lthumb 19.7669 49.7275
rfemur -34.1801 0.571071 15.6298
rtibia 62.3155
rfoot -8.58243 -6.21587
rtoes 17.8908
lfemur -5.49452 -14.4362 -31.1893
ltibia 23.3213
lfoot -15.8037 8.65006
ltoes 35.47
56
root -1.11967 16.2556 -22.4952 1.89089 -2.6873 5.41692
lowerback 13.2179 0.486039 -8.73947
upperback -4.41973 -0.802137 1.19167
thorax -12.2658 0.361867 6.47083
lowerneck -8.74028 -3.98591 -3.78999
upperneck 17.5147 -5.21824 1.82963
head 6.93675 -2.61072 0.765185
rclavicle -1.43125e-014 -1.11319e-014
rhumerus -41.4424 -0.34861 -83.7115
rradius 26.5557
rwrist 8.37927
rhand -9.08212 19.8186
rfingers 7.12502
rthumb 16.8674 -9.46884
lclavicle -1.43125e-014 -1.11319e-014
lhumerus -32.4411 -1.94296 88.7987
lradius 24.4196
lwrist 1.86591
lhand -5.96218 20.3433
lfingers 7.12502
lthumb 19.8687 49.3476
rfemur -34.5492 0.979748 15.6355
rtibia 60.5096
rfoot -7.44364 -7.02947
rtoes 19.0462
lfemur -5.09235 -14.3768 -31.2761
ltibia 23.0666
lfoot -15.9448 8.60972
ltoes 34.9439
